Coordinates
version=1
nRows=11
nColumns=36
inDegrees=yes

Units are S.I. units (second, meters, Newtons, ...)
If the header above contains a line with 'inDegrees', this indicates whether rotational values are in degrees (yes) or radians (no).

endheader
time	pelvis_tilt	pelvis_list	pelvis_rotation	pelvis_tx	pelvis_ty	pelvis_tz	hip_flexion_r	hip_adduction_r	hip_rotation_r	knee_angle_r	knee_angle_r_beta	ankle_angle_r	subtalar_angle_r	mtp_angle_r	hip_flexion_l	hip_adduction_l	hip_rotation_l	knee_angle_l	knee_angle_l_beta	ankle_angle_l	subtalar_angle_l	mtp_angle_l	lumbar_extension	lumbar_bending	lumbar_rotation	arm_flex_r	arm_add_r	arm_rot_r	elbow_flex_r	pro_sup_r	arm_flex_l	arm_add_l	arm_rot_l	elbow_flex_l	pro_sup_l
      3.25000000	    -10.19321444	      0.96921865	     -3.28096920	     -0.33323625	      0.85999994	     -0.65103192	     56.28559709	    -12.22818032	     -5.95423759	     69.22399224	      1.20818659	     25.64371966	     -1.30885149	     -7.49999987	     55.21399113	     -8.98974583	     -3.71363847	     72.08825177	      1.25817735	     26.52308395	     -5.46717211	     -7.49999987	    -23.68973466	      0.92150346	      0.49938073	     58.22151557	    -11.55120368	      5.04736005	     74.75726883	    107.79141435	     53.02994238	    -14.92432996	      0.88393311	     85.50561876	    101.31442844
      3.26000000	    -10.56107268	      1.00962110	     -3.30168614	     -0.33649946	      0.85028930	     -0.65142952	     58.08722598	    -12.32709697	     -5.56024700	     71.12982270	      1.24144960	     26.23873573	     -1.38474875	     -7.49999987	     56.93287511	     -9.15063725	     -3.60106683	     73.97998657	      1.29119435	     27.14566751	     -5.33044922	     -7.49999987	    -23.95480420	      0.90292538	      0.50074031	     59.25773488	    -11.83272324	      5.01513084	     76.25605763	    107.79529077	     54.06906183	    -15.12908660	      0.86294785	     86.85453142	    101.30531791
      3.27000000	    -10.94022030	      1.07590918	     -3.23241120	     -0.33976178	      0.84039635	     -0.65206445	     59.90570651	    -12.55227570	     -5.21492525	     73.04816299	      1.27493096	     26.79243948	     -1.36568729	     -7.49999987	     58.67949442	     -9.18253986	     -3.42466382	     75.84096076	      1.32367447	     27.75885854	     -5.11837316	     -7.49999987	    -24.23206831	      0.89863564	      0.41344157	     60.25851175	    -12.12592844	      4.96922821	     77.79027248	    107.78833492	     55.06396526	    -15.32636740	      0.78783070	     88.25900986	    101.27935452
      3.28000000	    -11.26155231	      1.18953905	     -3.11861607	     -0.34294766	      0.83034269	     -0.65288780	     61.68350550	    -12.90189235	     -4.85903487	     74.99233597	      1.30886318	     27.51987786	     -0.95252806	     -7.49999987	     60.35377163	     -9.13593095	     -3.28239115	     77.69055371	      1.35595596	     28.53207367	     -4.62644955	     -7.49999987	    -24.56480310	      0.88413652	      0.26430797	     61.25559352	    -12.39257215	      4.82202757	     79.28790458	    107.54737412	     56.02258581	    -15.56916302	      0.70907057	     89.67354584	    100.86445230
      3.29000000	    -11.63293651	      1.30675882	     -3.00775035	     -0.34617046	      0.82005847	     -0.65369515	     63.53281178	    -13.20764020	     -4.46255481	     76.89889667	      1.34213894	     27.99028822	     -1.04878849	     -7.49999987	     62.08657915	     -9.05880482	     -3.12942217	     79.50577135	      1.38763748	     29.04380883	     -4.71545333	     -7.49999987	    -24.84338565	      0.86285081	      0.08888731	     62.26753302	    -12.63873795	      4.83084895	     80.71170863	    107.56822356	     56.96981111	    -15.85962179	      0.73689540	     91.08424514	    100.87319349
      3.30000000	    -11.98071031	      1.44264785	     -2.90368537	     -0.34930423	      0.80965904	     -0.65447393	     65.37462432	    -13.49594398	     -3.99685827	     78.80236154	      1.37536067	     28.45743767	     -0.94568374	     -7.49999987	     63.78396626	     -8.98310328	     -3.00641639	     81.30367444	      1.41901681	     29.58833024	     -4.65082825	     -7.49999987	    -25.14249159	      0.81468306	     -0.08272558	     63.24383878	    -12.87996046	      4.75023938	     82.14164588	    107.58305008	     57.90945183	    -16.07005577	      0.64941501	     92.44813536	    100.87829631
      3.31000000	    -12.22131281	      1.56718167	     -2.80558651	     -0.35229962	      0.79938149	     -0.65527077	     67.09269675	    -13.78430217	     -3.55897079	     80.67945950	      1.40812221	     28.90265141	     -0.92567057	     -7.49999987	     65.36396219	     -8.90978979	     -2.87862529	     83.10365099	      1.45043233	     30.10724712	     -4.63205760	     -7.49999987	    -25.56079342	      0.77584280	     -0.22293409	     64.21366634	    -13.22190899	      4.76568699	     83.47776181	    107.61782626	     58.82091016	    -16.23590419	      0.56314232	     93.74628201	    100.93377831
      3.32000000	    -12.49736187	      1.68798080	     -2.70568167	     -0.35523218	      0.78898761	     -0.65599925	     68.84977963	    -14.05454454	     -3.08058148	     82.52746282	      1.44037595	     29.42100114	     -0.60746265	     -7.49999987	     66.98352205	     -8.86236899	     -2.74750955	     84.87605106	      1.48136655	     30.63200386	     -4.35754210	     -7.49999987	    -25.97768433	      0.74353424	     -0.33734760	     65.12697834	    -13.61275441	      4.84058553	     84.95803657	    107.59870309	     59.75943146	    -16.41522886	      0.44294855	     95.08110891	    100.93367358
      3.33000000	    -12.66110164	      1.75002886	     -2.62401764	     -0.35786383	      0.77866406	     -0.65675403	     70.44429407	    -14.27506420	     -2.66832943	     84.35350433	      1.47224639	     29.94949077	     -0.59340629	     -7.49999987	     68.50425756	     -8.86533236	     -2.59039449	     86.69931209	      1.51318846	     31.11271369	     -4.28606827	     -7.49999987	    -26.45495916	      0.76374061	     -0.44115902	     65.99924886	    -14.03095006	      4.94066288	     86.24315269	    107.60319856	     60.49539478	    -16.62099823	      0.42544536	     96.35549206	    100.97141433
      3.34000000	    -12.85962941	      1.79455715	     -2.56776285	     -0.36044975	      0.76823056	     -0.65745397	     72.07424579	    -14.41630203	     -2.21547884	     86.13636772	      1.50336322	     30.42214760	     -0.50450364	     -7.49999987	     70.05604868	     -8.91551910	     -2.42780492	     88.48939964	      1.54443138	     31.56839837	     -4.09327202	     -7.49999987	    -26.88322480	      0.80548231	     -0.53844897	     66.87143317	    -14.23415612	      4.86887824	     87.42391300	    107.58708894	     61.20764919	    -16.79546427	      0.29624147	     97.57172122	    100.98363107
      3.35000000	    -13.04962922	      1.81235815	     -2.56487105	     -0.36288669	      0.75774452	     -0.65804049	     73.68443756	    -14.48610981	     -1.79613887	     87.88982392	      1.53396681	     30.87043384	     -0.50457179	     -7.49999987	     71.59616553	     -9.04292448	     -2.27502759	     90.27142713	      1.57553362	     32.02823880	     -3.91432787	     -7.49999987	    -27.28796545	      0.85183079	     -0.58319000	     67.69226131	    -14.28899704	      4.66109950	     88.44111691	    107.57028213	     61.83540983	    -16.95022902	      0.13147084	     98.77468606	    101.01064982
